<svg width="673" height="687" viewBox="0 0 673 687" fill="none" xmlns="http://www.w3.org/2000/svg">
<path d="M300.296 101.397L461.852 18.7683C468.236 15.5017 475.764 15.5017 482.15 18.7683L643.705 101.397C651.339 105.303 656.161 113.261 656.161 121.964V411.853C656.161 420.555 651.339 428.515 643.705 432.42L482.15 515.05C475.764 518.316 468.236 518.316 461.852 515.05L300.296 432.42C292.66 428.515 287.838 420.557 287.838 411.853V121.964C287.838 113.263 292.66 105.303 300.296 101.397Z" fill="#FAFAFB" stroke="#505967" stroke-width="3.51" stroke-linecap="round" stroke-linejoin="round"/>
<path d="M25.8879 377.511L187.443 294.882C193.828 291.616 201.356 291.616 207.741 294.882L369.296 377.511C376.933 381.417 381.754 389.375 381.754 398.078V564.521C381.754 573.22 376.933 581.184 369.296 585.088L207.741 667.715C201.356 670.987 193.828 670.987 187.443 667.715L25.8879 585.088C18.251 581.184 13.4297 573.226 13.4297 564.521V398.078C13.4297 389.376 18.251 381.417 25.8879 377.511Z" fill="white" stroke="#505967" stroke-width="3.51" stroke-linecap="round" stroke-linejoin="round"/>
<g opacity="0.6">
<path d="M291.395 109.61L472 202.923L652.604 109.61M471.99 515.396V202.928" stroke="#505967" stroke-width="3.51" stroke-linecap="round" stroke-linejoin="round"/>
<path d="M16.9922 385.806L197.596 479.12L378.201 385.806M197.588 670.216V479.082" stroke="#505967" stroke-width="3.51" stroke-linecap="round" stroke-linejoin="round"/>
</g>
</svg>
