<svg width="393" height="399" viewBox="0 0 393 399" fill="none" xmlns="http://www.w3.org/2000/svg">
<path d="M177.012 135.443L263.302 91.5335C266.712 89.7974 270.733 89.7974 274.143 91.5335L360.433 135.443C364.513 137.519 367.089 141.748 367.089 146.373V234.823C367.089 239.447 364.513 243.677 360.433 245.753L274.143 289.663C270.733 291.399 266.712 291.399 263.302 289.663L177.012 245.753C172.933 243.677 170.357 239.448 170.357 234.823V146.373C170.357 141.749 172.933 137.519 177.012 135.443Z" fill="#FAFAFB" stroke="#505967" stroke-width="3.50824" stroke-linecap="round" stroke-linejoin="round"/>
<path d="M32.0077 220.288L118.298 176.378C121.708 174.642 125.729 174.642 129.139 176.378L215.429 220.288C219.508 222.364 222.083 226.593 222.083 231.218V316.721C222.083 321.343 219.508 325.575 215.429 327.65L129.139 371.559C125.729 373.298 121.708 373.298 118.298 371.559L32.0077 327.65C27.9287 325.575 25.3535 321.346 25.3535 316.721V231.218C25.3535 226.594 27.9287 222.364 32.0077 220.288Z" fill="#F8D380" stroke="#505967" stroke-width="3.50824" stroke-linecap="round" stroke-linejoin="round"/>
<path opacity="0.6" d="M27.2559 221.744L123.72 271.332L218.212 222.843M123.716 372.882V271.312" stroke="#505967" stroke-width="2.33883" stroke-linecap="round" stroke-linejoin="round"/>
<path d="M32.0077 70.6109L118.298 26.7008C121.708 24.965 125.729 24.965 129.139 26.7008L215.429 70.6109C219.508 72.6867 222.083 76.9152 222.083 81.5404V167.044C222.083 171.668 219.508 175.898 215.429 177.973L129.139 221.883C125.729 223.619 121.708 223.619 118.298 221.883L32.0077 177.973C27.9287 175.898 25.3535 171.669 25.3535 167.044V81.5404C25.3535 76.9164 27.9287 72.6867 32.0077 70.6109Z" fill="white" stroke="#505967" stroke-width="3.50824" stroke-linecap="round" stroke-linejoin="round"/>
<path opacity="0.6" d="M27.2559 75.0132L123.72 124.601L220.185 75.0132M123.716 223.204V124.582" stroke="#505967" stroke-width="2.33883" stroke-linecap="round" stroke-linejoin="round"/>
<path d="M177.012 136.917L263.302 93.0066C266.712 91.2706 270.733 91.2706 274.143 93.0066L360.433 136.917C364.513 138.992 367.089 143.221 367.089 147.846V195.039L269.102 243.985L170.357 195.039V147.846C170.357 143.222 172.933 138.992 177.012 136.917Z" fill="#FAFAFB"/>
<path d="M360.433 245.753C364.513 243.677 367.089 239.447 367.089 234.823V146.373C367.089 141.748 364.513 137.519 360.433 135.443L274.143 91.5335C270.733 89.7974 266.712 89.7974 263.302 91.5335L177.012 135.443C172.933 137.519 170.357 141.749 170.357 146.373V197.352L213.86 219.454" stroke="#505967" stroke-width="3.50824" stroke-linecap="round" stroke-linejoin="round"/>
<path opacity="0.6" d="M172.266 139.846L268.73 189.434L365.194 139.846M268.726 290.984V189.414" stroke="#505967" stroke-width="2.33883" stroke-linecap="round" stroke-linejoin="round"/>
</svg>
