<svg width="1415" height="484" viewBox="0 0 1415 484" fill="none" xmlns="http://www.w3.org/2000/svg">
<path d="M1152.61 444.018L1051.19 253.97C1049.21 250.3 1048.18 246.198 1048.18 242.031C1048.18 237.864 1049.21 233.762 1051.19 230.092L1152.61 40.0445C1157.4 31.0598 1167.17 25.3882 1177.86 25.3882H1258.62C1269.31 25.3882 1279.07 31.0598 1283.87 40.0445L1385.29 230.092C1387.27 233.762 1388.3 237.863 1388.3 242.03C1388.3 246.196 1387.27 250.297 1385.29 253.967L1283.87 444.018C1279.08 453.002 1269.31 458.674 1258.62 458.674H1177.86C1167.17 458.674 1157.41 453.002 1152.61 444.018Z" fill="white" stroke="#505967" stroke-width="4.03666" stroke-linecap="round" stroke-linejoin="round"/>
<path d="M1162.67 454.482L1277.21 242.024L1162.67 29.5664M1385.68 242.015H1277.2" stroke="#505967" stroke-width="2.88333" stroke-linecap="round" stroke-linejoin="round" stroke-dasharray="8.65 11.53"/>
<path d="M936.459 444.018L835.035 253.97C833.062 250.3 832.029 246.198 832.029 242.031C832.029 237.864 833.062 233.762 835.035 230.092L936.459 40.0445C941.254 31.0598 951.023 25.3882 961.706 25.3882H1042.48C1053.16 25.3882 1062.93 31.0598 1067.72 40.0445L1169.14 230.092C1171.12 233.762 1172.15 237.863 1172.15 242.03C1172.15 246.196 1171.12 250.298 1169.14 253.967L1067.72 444.018C1062.93 453.002 1053.16 458.674 1042.48 458.674H961.706C951.023 458.674 941.257 453.002 936.459 444.018Z" fill="#FAFAFB" stroke="#505967" stroke-width="4.03666" stroke-linecap="round" stroke-linejoin="round"/>
<path d="M946.502 454.482L1061.04 242.024L946.502 29.5664M1169.52 242.015H1061.03" stroke="#505967" stroke-width="2.88333" stroke-linecap="round" stroke-linejoin="round" stroke-dasharray="8.65 11.53"/>
<path d="M562.082 443.968L460.658 253.918C458.684 250.248 457.65 246.147 457.65 241.98C457.65 237.814 458.684 233.712 460.658 230.043L562.082 39.9923C566.874 31.0076 576.645 25.3359 587.325 25.3359H823.908C834.591 25.3359 844.357 31.0076 849.152 39.9923L950.576 230.04C952.55 233.71 953.584 237.812 953.584 241.979C953.584 246.146 952.55 250.248 950.576 253.918L849.152 443.968C844.359 452.953 834.591 458.625 823.908 458.625H587.325C576.645 458.625 566.877 452.953 562.082 443.968Z" fill="#F8D380" stroke="#505967" stroke-width="4.03666" stroke-linecap="round" stroke-linejoin="round"/>
<mask id="mask0_51791_1473" style="mask-type:alpha" maskUnits="userSpaceOnUse" x="575" y="241" width="380" height="219">
<path d="M686.667 241.995L576.4 446.506C573.292 452.267 577.467 459.259 584.012 459.259H819.698C826.544 459.259 833.258 457.385 839.114 453.839C844.97 450.293 849.742 445.211 852.914 439.145L953.796 246.199C954.026 245.759 954.138 245.268 954.122 244.773C954.107 244.277 953.964 243.794 953.707 243.37C953.45 242.946 953.088 242.596 952.656 242.352C952.225 242.109 951.737 241.981 951.242 241.98L686.667 241.995Z" fill="#967E7E"/>
</mask>
<g mask="url(#mask0_51791_1473)">
<path d="M590.869 -165.541L-454.195 818.215" stroke="#F3F4F6" stroke-width="2.88333"/>
<path d="M611.195 -165.541L-433.869 818.215" stroke="#F3F4F6" stroke-width="2.88333"/>
<path d="M631.51 -165.541L-413.554 818.215" stroke="#F3F4F6" stroke-width="2.88333"/>
<path d="M651.842 -165.54L-393.222 818.217" stroke="#F3F4F6" stroke-width="2.88333"/>
<path d="M672.168 -165.541L-372.896 818.215" stroke="#F3F4F6" stroke-width="2.88333"/>
<path d="M692.477 -165.541L-352.588 818.215" stroke="#F3F4F6" stroke-width="2.88333"/>
<path d="M712.797 -165.54L-332.267 818.217" stroke="#F3F4F6" stroke-width="2.88333"/>
<path d="M733.123 -165.541L-311.941 818.215" stroke="#F3F4F6" stroke-width="2.88333"/>
<path d="M753.434 -165.54L-291.631 818.217" stroke="#F3F4F6" stroke-width="2.88333"/>
<path d="M773.754 -165.541L-271.31 818.215" stroke="#F3F4F6" stroke-width="2.88333"/>
<path d="M794.09 -165.54L-250.974 818.217" stroke="#F3F4F6" stroke-width="2.88333"/>
<path d="M814.422 -165.54L-230.642 818.217" stroke="#F3F4F6" stroke-width="2.88333"/>
<path d="M834.709 -165.541L-210.355 818.215" stroke="#F3F4F6" stroke-width="2.88333"/>
<path d="M855.051 -165.541L-190.013 818.215" stroke="#F3F4F6" stroke-width="2.88333"/>
<path d="M875.355 -165.54L-169.709 818.217" stroke="#F3F4F6" stroke-width="2.88333"/>
<path d="M895.67 -165.541L-149.394 818.215" stroke="#F3F4F6" stroke-width="2.88333"/>
<path d="M916.002 -165.54L-129.062 818.217" stroke="#F3F4F6" stroke-width="2.88333"/>
<path d="M936.311 -165.541L-108.754 818.215" stroke="#F3F4F6" stroke-width="2.88333"/>
<path d="M956.625 -165.541L-88.4392 818.215" stroke="#F3F4F6" stroke-width="2.88333"/>
<path d="M976.979 -165.54L-68.0857 818.217" stroke="#F3F4F6" stroke-width="2.88333"/>
<path d="M997.277 -165.54L-47.7868 818.217" stroke="#F3F4F6" stroke-width="2.88333"/>
<path d="M1017.6 -165.541L-27.4607 818.215" stroke="#F3F4F6" stroke-width="2.88333"/>
<path d="M1037.93 -165.54L-7.1345 818.217" stroke="#F3F4F6" stroke-width="2.88333"/>
<path d="M1058.26 -165.54L13.1956 818.217" stroke="#F3F4F6" stroke-width="2.88333"/>
<path d="M1078.55 -165.542L33.4885 818.214" stroke="#F3F4F6" stroke-width="2.88333"/>
<path d="M1098.88 -165.541L53.8206 818.215" stroke="#F3F4F6" stroke-width="2.88333"/>
<path d="M1119.22 -165.54L74.1526 818.217" stroke="#F3F4F6" stroke-width="2.88333"/>
<path d="M1139.54 -165.54L94.4729 818.217" stroke="#F3F4F6" stroke-width="2.88333"/>
<path d="M1159.85 -165.54L114.787 818.217" stroke="#F3F4F6" stroke-width="2.88333"/>
<path d="M1180.18 -165.54L135.114 818.217" stroke="#F3F4F6" stroke-width="2.88333"/>
<path d="M1200.49 -165.541L155.428 818.215" stroke="#F3F4F6" stroke-width="2.88333"/>
<path d="M1220.81 -165.541L175.748 818.215" stroke="#F3F4F6" stroke-width="2.88333"/>
<path d="M1241.13 -165.54L196.069 818.217" stroke="#F3F4F6" stroke-width="2.88333"/>
<path d="M1261.44 -165.54L216.377 818.217" stroke="#F3F4F6" stroke-width="2.88333"/>
<path d="M1281.77 -165.541L236.703 818.215" stroke="#F3F4F6" stroke-width="2.88333"/>
<path d="M1302.09 -165.541L257.03 818.215" stroke="#F3F4F6" stroke-width="2.88333"/>
<path d="M1322.41 -165.541L277.344 818.215" stroke="#F3F4F6" stroke-width="2.88333"/>
<path d="M1342.73 -165.54L297.664 818.217" stroke="#F3F4F6" stroke-width="2.88333"/>
<path d="M1363.07 -165.541L318.008 818.215" stroke="#F3F4F6" stroke-width="2.88333"/>
<path d="M1383.37 -165.541L338.305 818.215" stroke="#F3F4F6" stroke-width="2.88333"/>
<path d="M1403.69 -165.54L358.625 818.217" stroke="#F3F4F6" stroke-width="2.88333"/>
<path d="M1424.03 -165.54L378.963 818.217" stroke="#F3F4F6" stroke-width="2.88333"/>
<path d="M1444.35 -165.542L399.283 818.214" stroke="#F3F4F6" stroke-width="2.88333"/>
<path d="M1464.66 -165.541L419.592 818.215" stroke="#F3F4F6" stroke-width="2.88333"/>
<path d="M1484.96 -165.541L439.897 818.215" stroke="#F3F4F6" stroke-width="2.88333"/>
<path d="M1505.3 -165.54L460.239 818.217" stroke="#F3F4F6" stroke-width="2.88333"/>
<path d="M1525.61 -165.54L480.549 818.217" stroke="#F3F4F6" stroke-width="2.88333"/>
<path d="M1545.94 -165.541L500.873 818.215" stroke="#F3F4F6" stroke-width="2.88333"/>
<path d="M1566.25 -165.541L521.19 818.215" stroke="#F3F4F6" stroke-width="2.88333"/>
<path d="M1586.57 -165.54L541.51 818.217" stroke="#F3F4F6" stroke-width="2.88333"/>
<path d="M1606.89 -165.54L561.824 818.217" stroke="#F3F4F6" stroke-width="2.88333"/>
<path d="M1627.21 -165.54L582.145 818.217" stroke="#F3F4F6" stroke-width="2.88333"/>
<path d="M1647.52 -165.541L602.459 818.215" stroke="#F3F4F6" stroke-width="2.88333"/>
<path d="M1667.86 -165.54L622.791 818.217" stroke="#F3F4F6" stroke-width="2.88333"/>
<path d="M1688.2 -165.54L643.133 818.217" stroke="#F3F4F6" stroke-width="2.88333"/>
<path d="M1708.5 -165.541L663.438 818.215" stroke="#F3F4F6" stroke-width="2.88333"/>
<path d="M1728.81 -165.541L683.746 818.215" stroke="#F3F4F6" stroke-width="2.88333"/>
<path d="M1749.16 -165.541L704.094 818.215" stroke="#F3F4F6" stroke-width="2.88333"/>
<path d="M1769.46 -165.541L724.399 818.215" stroke="#F3F4F6" stroke-width="2.88333"/>
<path d="M1789.77 -165.54L744.701 818.217" stroke="#F3F4F6" stroke-width="2.88333"/>
<path d="M1810.11 -165.541L765.049 818.215" stroke="#F3F4F6" stroke-width="2.88333"/>
<path d="M1830.42 -165.54L785.354 818.217" stroke="#F3F4F6" stroke-width="2.88333"/>
<path d="M1850.75 -165.54L805.686 818.217" stroke="#F3F4F6" stroke-width="2.88333"/>
<path d="M1871.07 -165.54L826.01 818.217" stroke="#F3F4F6" stroke-width="2.88333"/>
<path d="M1891.39 -165.538L846.33 818.218" stroke="#F3F4F6" stroke-width="2.88333"/>
<path d="M1911.7 -165.541L866.635 818.215" stroke="#F3F4F6" stroke-width="2.88333"/>
<path d="M1932.03 -165.54L886.967 818.217" stroke="#F3F4F6" stroke-width="2.88333"/>
<path d="M1952.35 -165.54L907.282 818.217" stroke="#F3F4F6" stroke-width="2.88333"/>
<path d="M1972.66 -165.538L927.596 818.218" stroke="#F3F4F6" stroke-width="2.88333"/>
<path d="M1992.99 -165.541L947.928 818.215" stroke="#F3F4F6" stroke-width="2.88333"/>
</g>
<path d="M572.123 454.449L686.66 241.988L572.123 29.5308M953.094 241.977H686.652" stroke="#505967" stroke-width="2.88333" stroke-linecap="round" stroke-linejoin="round" stroke-dasharray="8.65 11.53"/>
<path d="M562.082 443.968L460.658 253.918C458.684 250.248 457.65 246.147 457.65 241.98C457.65 237.814 458.684 233.712 460.658 230.043L562.082 39.9923C566.874 31.0076 576.645 25.3359 587.325 25.3359H823.908C834.591 25.3359 844.357 31.0076 849.152 39.9923L950.576 230.04C952.55 233.71 953.584 237.812 953.584 241.979C953.584 246.146 952.55 250.248 950.576 253.918L849.152 443.968C844.359 452.953 834.591 458.625 823.908 458.625H587.325C576.645 458.625 566.877 452.953 562.082 443.968Z" stroke="#505967" stroke-width="4.03666" stroke-linecap="round" stroke-linejoin="round"/>
<path d="M345.935 444.018L244.511 253.97C242.537 250.3 241.504 246.198 241.504 242.031C241.504 237.864 242.537 233.762 244.511 230.092L345.935 40.0445C350.727 31.0598 360.499 25.3882 371.179 25.3882H451.949C462.629 25.3882 472.398 31.0598 477.193 40.0445L578.62 230.092C580.593 233.762 581.625 237.863 581.625 242.03C581.625 246.196 580.593 250.297 578.62 253.967L477.193 444.018C472.401 453.002 462.629 458.674 451.949 458.674H371.179C360.499 458.674 350.73 453.002 345.935 444.018Z" fill="#FAFAFB" stroke="#505967" stroke-width="4.03666" stroke-linecap="round" stroke-linejoin="round"/>
<path d="M355.971 454.482L470.508 242.024L355.971 29.5664M578.985 242.015H470.499" stroke="#505967" stroke-width="2.88333" stroke-linecap="round" stroke-linejoin="round" stroke-dasharray="8.65 11.53"/>
<path d="M129.785 444.018L28.3608 253.97C26.3868 250.3 25.3535 246.198 25.3535 242.031C25.3535 237.864 26.3868 233.762 28.3608 230.092L129.785 40.0445C134.58 31.0598 144.348 25.3882 155.028 25.3882H235.799C246.482 25.3882 256.248 31.0598 261.045 40.0445L362.469 230.092C364.442 233.762 365.475 237.863 365.475 242.03C365.475 246.196 364.442 250.297 362.469 253.967L261.045 444.018C256.25 453.002 246.482 458.674 235.799 458.674H155.031C144.348 458.674 134.58 453.002 129.785 444.018Z" fill="white" stroke="#505967" stroke-width="4.03666" stroke-linecap="round" stroke-linejoin="round"/>
<path d="M139.842 454.47L254.379 242.012L139.842 29.5542M362.856 242.003H254.37" stroke="#505967" stroke-width="2.88333" stroke-linecap="round" stroke-linejoin="round" stroke-dasharray="8.65 11.53"/>
</svg>
