<svg width="940" height="148" viewBox="0 0 940 148" fill="none" xmlns="http://www.w3.org/2000/svg">
<path d="M0.302881 31.635H20.2514L20.9334 50.5605L19.2284 48.344C21.5017 42.3197 25.0822 37.7162 29.9699 34.5335C34.9712 31.2372 40.9956 29.589 48.0429 29.589C56.4542 29.589 63.5584 31.6918 69.3554 35.8975C75.1524 40.1032 79.4717 45.7865 82.3134 52.9475C85.2687 59.9948 86.7464 67.9515 86.7464 76.8175C86.7464 85.6835 85.2687 93.697 82.3134 100.858C79.4717 107.905 75.1524 113.532 69.3554 117.737C63.5584 121.943 56.4542 124.046 48.0429 124.046C43.3825 124.046 39.12 123.307 35.2554 121.829C31.5044 120.352 28.2649 118.192 25.5369 115.35C22.9225 112.509 20.8765 108.985 19.3989 104.779L21.4449 103.074V147.575H0.302881V31.635ZM19.7399 76.8175C19.7399 82.2735 20.5355 87.2748 22.1269 91.8215C23.8319 96.2545 26.3894 99.835 29.7994 102.563C33.2094 105.291 37.3582 106.655 42.2459 106.655C49.6342 106.655 55.2039 103.813 58.9549 98.13C62.8196 92.4467 64.7519 85.3425 64.7519 76.8175C64.7519 68.4062 62.8196 61.302 58.9549 55.505C55.2039 49.708 49.6342 46.8095 42.2459 46.8095C37.3582 46.8095 33.2094 48.2303 29.7994 51.072C26.3894 53.8 23.8319 57.4373 22.1269 61.984C20.5355 66.417 19.7399 71.3615 19.7399 76.8175ZM118.325 31.635L119.007 56.869L117.472 55.846C118.609 47.5483 120.996 41.4672 124.633 37.6025C128.384 33.6242 133.613 31.635 140.319 31.635H148.844V48.1735H140.319C135.545 48.1735 131.624 49.026 128.555 50.731C125.486 52.3223 123.213 54.7662 121.735 58.0625C120.371 61.2452 119.689 65.2803 119.689 70.168V122H98.5468V31.635H118.325ZM193.868 124.046C185.002 124.046 177.216 122.114 170.51 118.249C163.917 114.384 158.745 108.871 154.994 101.71C151.357 94.5495 149.538 86.2518 149.538 76.8175C149.538 67.2695 151.357 58.9718 154.994 51.9245C158.745 44.7635 163.917 39.2507 170.51 35.386C177.216 31.5213 185.002 29.589 193.868 29.589C202.734 29.589 210.521 31.5213 217.227 35.386C223.933 39.2507 229.105 44.7635 232.742 51.9245C236.38 58.9718 238.198 67.2695 238.198 76.8175C238.198 86.2518 236.38 94.5495 232.742 101.71C229.105 108.871 223.933 114.384 217.227 118.249C210.521 122.114 202.734 124.046 193.868 124.046ZM193.868 106.655C201.143 106.655 206.713 104.041 210.577 98.812C214.442 93.5833 216.374 86.2518 216.374 76.8175C216.374 67.3832 214.442 60.0517 210.577 54.823C206.713 49.5943 201.143 46.98 193.868 46.98C186.707 46.98 181.138 49.5943 177.159 54.823C173.295 60.0517 171.362 67.3832 171.362 76.8175C171.362 86.2518 173.295 93.5833 177.159 98.812C181.138 104.041 186.707 106.655 193.868 106.655ZM311.256 0.944993H332.398V122H312.45L311.938 109.212C309.324 113.986 305.63 117.681 300.856 120.295C296.195 122.796 290.626 124.046 284.147 124.046C275.849 124.046 268.802 121.943 263.005 117.737C257.321 113.532 253.059 107.848 250.217 100.688C247.376 93.5265 245.955 85.5698 245.955 76.8175C245.955 68.0652 247.376 60.1085 250.217 52.9475C253.059 45.7865 257.321 40.1032 263.005 35.8975C268.802 31.6918 275.849 29.589 284.147 29.589C290.398 29.589 295.798 30.7825 300.344 33.1695C304.891 35.5565 308.528 39.0802 311.256 43.7405V0.944993ZM310.233 91.651C311.825 87.1043 312.62 82.1598 312.62 76.8175C312.62 71.1342 311.825 66.0192 310.233 61.4725C308.642 56.9258 306.141 53.2885 302.731 50.5605C299.321 47.7188 295.116 46.298 290.114 46.298C282.612 46.298 276.986 49.1965 273.235 54.9935C269.484 60.7905 267.608 68.0652 267.608 76.8175C267.608 85.2288 269.484 92.333 273.235 98.13C277.099 103.813 282.726 106.655 290.114 106.655C295.229 106.655 299.435 105.291 302.731 102.563C306.141 99.835 308.642 96.1977 310.233 91.651ZM406.642 122L406.13 97.448L408.858 98.9825C407.381 107.621 404.027 113.986 398.799 118.078C393.57 122.057 387.205 124.046 379.703 124.046C370.041 124.046 362.539 120.92 357.197 114.668C351.854 108.417 349.183 100.119 349.183 89.7755V31.635H370.325V82.9555C370.325 88.4115 370.837 92.8445 371.86 96.2545C372.996 99.6645 374.645 102.279 376.804 104.097C379.078 105.802 382.147 106.655 386.011 106.655C391.922 106.655 396.582 104.666 399.992 100.688C403.402 96.5955 405.107 90.6848 405.107 82.9555V31.635H426.249V122H406.642ZM503.379 64.5415C502.583 58.9718 500.367 54.6525 496.73 51.5835C493.092 48.5145 488.773 46.98 483.772 46.98C476.611 46.98 471.041 49.5943 467.063 54.823C463.198 60.0517 461.266 67.3832 461.266 76.8175C461.266 86.2518 463.198 93.5833 467.063 98.812C471.041 104.041 476.611 106.655 483.772 106.655C489.114 106.655 493.604 105.064 497.241 101.881C500.878 98.5847 503.152 93.9243 504.061 87.9L525.885 88.923C525.089 96.084 522.759 102.336 518.895 107.678C515.03 112.907 510.029 116.942 503.891 119.783C497.866 122.625 491.16 124.046 483.772 124.046C474.906 124.046 467.119 122.114 460.413 118.249C453.82 114.384 448.649 108.871 444.898 101.71C441.26 94.5495 439.442 86.2518 439.442 76.8175C439.442 67.2695 441.26 58.9718 444.898 51.9245C448.649 44.7635 453.82 39.2507 460.413 35.386C467.119 31.5213 474.906 29.589 483.772 29.589C490.933 29.589 497.525 30.953 503.55 33.681C509.574 36.409 514.462 40.3305 518.213 45.4455C522.077 50.5605 524.407 56.528 525.203 63.348L503.379 64.5415ZM563.52 11.175V94.5495C563.52 98.0732 564.373 100.744 566.078 102.563C567.897 104.382 570.454 105.291 573.75 105.291H587.39V122H570.511C561.304 122 554.313 119.67 549.539 115.009C544.765 110.349 542.378 103.529 542.378 94.5495V11.175H563.52ZM587.39 31.635V48.1735H528.227V31.635H587.39ZM620.24 31.635V122H599.098V31.635H620.24ZM620.751 0.944993V18.8475H598.757V0.944993H620.751ZM691.246 60.4495C690.337 55.9028 688.063 52.3223 684.426 49.708C680.902 47.0937 676.924 45.7865 672.491 45.7865C668.058 45.7865 664.364 46.8663 661.409 49.026C658.567 51.1857 657.146 54.0273 657.146 57.551C657.26 61.0747 659.022 63.8027 662.432 65.735C665.842 67.5537 670.275 68.9745 675.731 69.9975C684.369 71.4752 691.417 73.2938 696.873 75.4535C702.329 77.4995 706.477 80.3412 709.319 83.9785C712.274 87.6158 713.752 92.2762 713.752 97.9595C713.752 103.756 712.047 108.587 708.637 112.452C705.227 116.317 700.624 119.215 694.827 121.147C689.143 123.08 682.721 124.046 675.56 124.046C667.49 124.046 660.329 122.796 654.077 120.295C647.825 117.794 642.881 114.271 639.244 109.724C635.72 105.064 633.674 99.6077 633.106 93.356L654.759 92.1625C655.327 95.4588 656.464 98.2437 658.169 100.517C659.988 102.79 662.318 104.552 665.16 105.802C668.001 107.053 671.354 107.678 675.219 107.678C679.652 107.678 683.517 106.825 686.813 105.12C690.223 103.415 691.928 100.801 691.928 97.2775C691.928 94.8905 691.189 92.9582 689.712 91.4805C688.348 90.0028 686.586 88.923 684.426 88.241C682.38 87.4453 679.538 86.6497 675.901 85.854C674.992 85.7403 673.741 85.4562 672.15 85.0015C663.852 83.2965 657.146 81.4778 652.031 79.5455C646.916 77.6132 642.824 74.942 639.755 71.532C636.8 68.0083 635.322 63.5185 635.322 58.0625C635.322 52.2655 636.857 47.2073 639.926 42.888C643.108 38.5687 647.541 35.2723 653.225 32.999C659.022 30.612 665.842 29.4185 673.685 29.4185C684.142 29.4185 692.837 32.1465 699.771 37.6025C706.818 42.9448 711.081 50.2195 712.559 59.4265L691.246 60.4495ZM721.53 76.8175C721.53 67.2695 723.349 58.9718 726.986 51.9245C730.623 44.7635 735.795 39.2507 742.501 35.386C749.208 31.5213 756.994 29.589 765.86 29.589C773.703 29.589 780.75 31.3508 787.002 34.8745C793.254 38.3982 798.255 43.7405 802.006 50.9015C805.757 57.9488 807.746 66.6443 807.973 76.988V82.6145H743.695C744.15 90.3438 746.309 96.3682 750.174 100.688C754.039 104.893 759.267 106.996 765.86 106.996C770.066 106.996 773.873 105.916 777.283 103.756C780.807 101.483 783.421 98.3573 785.126 94.379L806.78 95.9135C804.052 104.552 798.937 111.429 791.435 116.544C784.047 121.545 775.522 124.046 765.86 124.046C756.994 124.046 749.208 122.114 742.501 118.249C735.795 114.384 730.623 108.871 726.986 101.71C723.349 94.5495 721.53 86.2518 721.53 76.8175ZM786.149 68.122C785.24 60.7337 782.91 55.2777 779.159 51.754C775.522 48.2303 771.089 46.4685 765.86 46.4685C759.722 46.4685 754.777 48.4008 751.026 52.2655C747.275 56.0165 744.888 61.302 743.865 68.122H786.149ZM881.246 0.944993H902.388V122H882.439L881.928 109.212C879.313 113.986 875.619 117.681 870.845 120.295C866.185 122.796 860.615 124.046 854.136 124.046C845.839 124.046 838.791 121.943 832.994 117.737C827.311 113.532 823.048 107.848 820.207 100.688C817.365 93.5265 815.944 85.5698 815.944 76.8175C815.944 68.0652 817.365 60.1085 820.207 52.9475C823.048 45.7865 827.311 40.1032 832.994 35.8975C838.791 31.6918 845.839 29.589 854.136 29.589C860.388 29.589 865.787 30.7825 870.334 33.1695C874.88 35.5565 878.518 39.0802 881.246 43.7405V0.944993ZM880.223 91.651C881.814 87.1043 882.61 82.1598 882.61 76.8175C882.61 71.1342 881.814 66.0192 880.223 61.4725C878.631 56.9258 876.131 53.2885 872.721 50.5605C869.311 47.7188 865.105 46.298 860.104 46.298C852.602 46.298 846.975 49.1965 843.224 54.9935C839.473 60.7905 837.598 68.0652 837.598 76.8175C837.598 85.2288 839.473 92.333 843.224 98.13C847.089 103.813 852.715 106.655 860.104 106.655C865.219 106.655 869.424 105.291 872.721 102.563C876.131 99.835 878.631 96.1977 880.223 91.651Z" fill="black"/>
<path d="M939.386 99.3235V122H915.516V99.3235H939.386Z" fill="#FCD200"/>
</svg>
